<svg version="1.1" xmlns="http://www.w3.org/2000/svg" xmlns:xlink="http://www.w3.org/1999/xlink" width="200" height="40"><g data-paper-data="{&quot;description&quot;:&quot;Logo for Catch Tail\n===================\n\nThis logo was generated by MarkMaker at http://emblemmatic.org/markmaker/ and may be composed of elements designed by others.\n\nThe font is Crete Round designed by TypeTogether and released under the OFL license via Google Fonts: https://www.google.com/fonts/specimen/Crete%20Round. The font includes this copyright statement: Copyright (c) 2011, TypeTogether (www.type-together.com info@type-together.com), with Reserved Font Names \\\&quot;Crete\\\&quot; and \\\&quot;Crete Round\\\n\nMarkMaker uses semantic data from the Princeton University WordNet database http://wordnet.princeton.edu and font descriptions from Google Fonts https://www.google.com/fonts.&quot;}" fill="none" fill-rule="nonzero" stroke="none" stroke-width="none" stroke-linecap="butt" stroke-linejoin="miter" stroke-miterlimit="10" stroke-dasharray="" stroke-dashoffset="0" font-family="none" font-weight="none" font-size="none" text-anchor="none" style="mix-blend-mode: normal"><path d="M50,250c0,-110.45695 89.54305,-200 200,-200c110.45695,0 200,89.54305 200,200c0,110.45695 -89.54305,200 -200,200c-110.45695,0 -200,-89.54305 -200,-200z" fill="none" stroke="#a569e1" stroke-width="3.5"></path><g data-paper-data="{&quot;elementType&quot;:&quot;logo&quot;}" fill="#a569e1" stroke="none" stroke-width="1"><g data-paper-data="{&quot;elementType&quot;:&quot;text&quot;}"><g data-paper-data="{&quot;baseline&quot;:74.60000000000001,&quot;elementType&quot;:&quot;row&quot;}"><g data-paper-data="{&quot;baselineProportion&quot;:0.9841688654353562,&quot;fontSize&quot;:100,&quot;baseline&quot;:74.60000000000001,&quot;elementType&quot;:&quot;word&quot;}"><path d="M105.19906,206.8045c0,-7.46757 1.10847,-14.0406 3.3254,-19.71906c2.21694,-5.67847 5.1534,-10.07345 8.8094,-13.18494c7.15643,-6.0674 15.26574,-9.10111 24.32796,-9.10111c9.06221,0 17.21043,1.98357 24.44464,5.95072c1.01123,0.54451 1.51685,1.32238 1.51685,2.33362v15.05183c0,1.16681 -0.5834,1.75021 -1.75021,1.75021h-6.53413c-1.16681,0 -1.71132,-0.5834 -1.63353,-1.75021l0.35004,-8.16766c-4.82281,-3.26706 -10.30681,-4.9006 -16.452,-4.9006c-14.93515,0 -22.40272,9.95677 -22.40272,29.8703c0,6.22298 0.73898,11.64864 2.21694,16.27698c1.47796,4.62834 4.08383,8.45936 7.81762,11.49306c3.73379,3.0337 8.71217,4.55055 14.93515,4.55055c6.22298,0 10.89021,-1.2446 14.0017,-3.73379l-0.46672,-8.16766c-0.07779,-1.16681 0.46672,-1.75021 1.63353,-1.75021h6.65081c1.16681,0 1.75021,0.5834 1.75021,1.75021v14.81847c0,1.08902 -0.38894,1.828 -1.16681,2.21694c-6.84528,3.34485 -14.66289,5.01728 -23.45285,5.01728c-12.75711,0 -22.2666,-3.61711 -28.52847,-10.85132c-6.26187,-7.23421 -9.39281,-17.15209 -9.39281,-29.75362z" data-paper-data="{&quot;elementType&quot;:&quot;letter&quot;,&quot;baseline&quot;:69.60000000000001,&quot;baselineProportion&quot;:0.983050847457627,&quot;fontSize&quot;:100}"></path><path d="M211.84536,211.35506v-4.08383c0,-5.52289 -1.55574,-8.98443 -4.66723,-10.3846c-1.47796,-0.6223 -3.61711,-0.93345 -6.41745,-0.93345c-5.28953,0 -8.47881,2.48919 -9.56783,7.46757c-0.23336,1.16681 -0.81677,1.75021 -1.75021,1.75021h-7.46757c-1.2446,0 -1.78911,-0.5834 -1.63353,-1.75021c0.31115,-5.67847 2.60587,-9.84009 6.88417,-12.48485c4.2783,-2.64477 9.7234,-3.96715 16.33532,-3.96715c13.92391,0 20.88587,6.37855 20.88587,19.13566v30.68706h5.01728c1.16681,0 1.75021,0.5834 1.75021,1.75021v5.71736c0,1.16681 -0.5834,1.75021 -1.75021,1.75021h-13.76834c-1.01123,0 -1.59464,-0.5834 -1.75021,-1.75021l-0.81677,-5.36732c-4.20051,5.67847 -10.26791,8.5177 -18.20221,8.5177c-4.97838,0 -9.10111,-1.30294 -12.36817,-3.90881c-3.26706,-2.60587 -4.9006,-6.78694 -4.9006,-12.54319c0,-7.54536 3.15038,-12.71821 9.45115,-15.51855c5.21174,-2.4114 11.43472,-3.73379 18.66894,-3.96715c1.47796,0 3.50043,-0.03889 6.0674,-0.11668M212.07872,228.39046v-8.98443c-7.46757,0 -12.05702,0.35004 -13.76834,1.05013c-1.71132,0.70009 -3.22817,1.40017 -4.55055,2.10026c-2.48919,1.32238 -3.73379,3.73379 -3.73379,7.23421c0,5.36732 3.0726,8.05098 9.21779,8.05098c4.04494,0 7.19532,-0.95289 9.45115,-2.85868c2.25583,-1.90579 3.38374,-4.10328 3.38374,-6.59247z" data-paper-data="{&quot;elementType&quot;:&quot;letter&quot;,&quot;baseline&quot;:50.6,&quot;baselineProportion&quot;:0.9768339768339768,&quot;fontSize&quot;:100}"></path><path d="M255.60068,197.82008v29.40357c0,3.656 0.46672,6.30077 1.40017,7.9343c0.93345,1.63353 2.68366,2.4503 5.25064,2.4503c2.56698,0 5.05617,-0.54451 7.46757,-1.63353c0.85566,-0.31115 1.47796,0 1.86689,0.93345l2.10026,5.36732c0.07779,0.23336 0.11668,0.56396 0.11668,0.99179c0,0.42783 -0.38894,0.87511 -1.16681,1.34183c-3.73379,1.86689 -8.16766,2.80034 -13.30162,2.80034c-6.92306,0 -11.47362,-1.78911 -13.65166,-5.36732c-1.55574,-2.33362 -2.4503,-4.58945 -2.68366,-6.76749c-0.31115,-2.95591 -0.46672,-6.0674 -0.46672,-9.33447v-28.12009h-6.65081c-1.16681,0 -1.75021,-0.5834 -1.75021,-1.75021v-6.0674c0,-1.16681 0.5834,-1.75021 1.75021,-1.75021h6.65081v-15.75191c0,-1.16681 0.5834,-1.75021 1.75021,-1.75021h9.56783c1.16681,0 1.75021,0.5834 1.75021,1.75021v15.75191h11.78477c1.16681,0 1.75021,0.5834 1.75021,1.75021v6.0674c0,1.16681 -0.5834,1.75021 -1.75021,1.75021z" data-paper-data="{&quot;elementType&quot;:&quot;letter&quot;,&quot;baseline&quot;:64.5,&quot;baselineProportion&quot;:0.9817351598173516,&quot;fontSize&quot;:100}"></path><path d="M289.32145,216.37233c0,14.15728 5.484,21.23591 16.452,21.23591c3.50043,0 7.58426,-1.05013 12.25149,-3.15038c1.16681,-0.46672 1.98357,-0.11668 2.4503,1.05013l2.10026,5.13396c0.38894,1.08902 0.07779,1.90579 -0.93345,2.4503c-4.74502,2.87813 -10.73464,4.31719 -17.96885,4.31719c-9.41226,0 -16.37421,-2.66421 -20.88587,-7.99264c-4.51166,-5.32843 -6.76749,-12.56264 -6.76749,-21.70264c0,-9.14 2.31417,-16.54923 6.94251,-22.2277c4.62834,-5.67847 11.53196,-8.5177 20.71085,-8.5177c7.00085,0 12.1737,1.90579 15.51855,5.71736c3.34485,3.81157 5.01728,8.67328 5.01728,14.58511c0,1.01123 -0.66119,1.51685 -1.98357,1.51685h-7.00085c-1.2446,0 -1.90579,-0.5834 -1.98357,-1.75021c-0.38894,-6.84528 -3.85047,-10.26791 -10.3846,-10.26791c-4.66723,0 -8.08987,1.61409 -10.26791,4.84226c-2.17804,3.22817 -3.26706,8.14821 -3.26706,14.76013z" data-paper-data="{&quot;elementType&quot;:&quot;letter&quot;,&quot;baseline&quot;:50.6,&quot;baselineProportion&quot;:0.9768339768339768,&quot;fontSize&quot;:100}"></path><path d="M328.87626,166.78297v-6.0674c0,-1.16681 0.5834,-1.75021 1.75021,-1.75021h17.61881c1.16681,0 1.75021,0.5834 1.75021,1.75021v35.9377c4.35609,-6.45634 10.3846,-9.68451 18.08553,-9.68451c12.05702,0 18.08553,6.61191 18.08553,19.83574v29.98698h6.88417c1.16681,0 1.75021,0.5834 1.75021,1.75021v5.71736c0,1.16681 -0.5834,1.75021 -1.75021,1.75021h-25.55311c-1.16681,0 -1.75021,-0.5834 -1.75021,-1.75021v-5.71736c0,-1.16681 0.5834,-1.75021 1.75021,-1.75021h5.60068v-24.15294c0,-4.9006 -0.6223,-8.47881 -1.86689,-10.73464c-1.2446,-2.25583 -3.81157,-3.38374 -7.70094,-3.38374c-3.88936,0 -7.11753,1.16681 -9.68451,3.50043c-2.56698,2.33362 -3.85047,4.97838 -3.85047,7.9343v26.8366h7.11753c1.16681,0 1.75021,0.5834 1.75021,1.75021v5.71736c0,1.16681 -0.5834,1.75021 -1.75021,1.75021h-26.48655c-1.16681,0 -1.75021,-0.5834 -1.75021,-1.75021v-5.71736c0,-1.16681 0.5834,-1.75021 1.75021,-1.75021h6.30077v-68.2583h-6.30077c-1.16681,0 -1.75021,-0.5834 -1.75021,-1.75021z" data-paper-data="{&quot;elementType&quot;:&quot;letter&quot;,&quot;baseline&quot;:74.60000000000001,&quot;baselineProportion&quot;:1,&quot;fontSize&quot;:100}"></path></g></g><g data-paper-data="{&quot;baseline&quot;:74.60000000000001,&quot;elementType&quot;:&quot;row&quot;}"><g data-paper-data="{&quot;baselineProportion&quot;:0.9841688654353562,&quot;fontSize&quot;:100,&quot;baseline&quot;:74.60000000000001,&quot;elementType&quot;:&quot;word&quot;}"><path d="M153.7383,339.63447h-32.43728c-1.16681,0 -1.75021,-0.5834 -1.75021,-1.75021v-5.71736c0,-1.16681 0.5834,-1.75021 1.75021,-1.75021h9.56783v-60.67404h-15.75191l0.5834,9.10111c0.07779,1.16681 -0.46672,1.75021 -1.63353,1.75021h-7.11753c-1.16681,0 -1.75021,-0.5834 -1.75021,-1.75021v-16.68536c0,-1.16681 0.5834,-1.75021 1.75021,-1.75021h61.02408c1.16681,0 1.75021,0.5834 1.75021,1.75021v16.68536c0,1.16681 -0.5834,1.75021 -1.75021,1.75021h-7.11753c-1.16681,0 -1.71132,-0.5834 -1.63353,-1.75021l0.5834,-9.10111h-15.75191v60.67404h9.68451c1.16681,0 1.75021,0.5834 1.75021,1.75021v5.71736c0,1.16681 -0.5834,1.75021 -1.75021,1.75021z" data-paper-data="{&quot;elementType&quot;:&quot;letter&quot;,&quot;baseline&quot;:67.9,&quot;baselineProportion&quot;:1,&quot;fontSize&quot;:100}"></path><path d="M200.99404,304.98026v-4.08383c0,-5.52289 -1.55574,-8.98443 -4.66723,-10.3846c-1.47796,-0.6223 -3.61711,-0.93345 -6.41745,-0.93345c-5.28953,0 -8.47881,2.48919 -9.56783,7.46757c-0.23336,1.16681 -0.81677,1.75021 -1.75021,1.75021h-7.46757c-1.2446,0 -1.78911,-0.5834 -1.63353,-1.75021c0.31115,-5.67847 2.60587,-9.84009 6.88417,-12.48485c4.2783,-2.64477 9.7234,-3.96715 16.33532,-3.96715c13.92391,0 20.88587,6.37855 20.88587,19.13566v30.68706h5.01728c1.16681,0 1.75021,0.5834 1.75021,1.75021v5.71736c0,1.16681 -0.5834,1.75021 -1.75021,1.75021h-13.76834c-1.01123,0 -1.59464,-0.5834 -1.75021,-1.75021l-0.81677,-5.36732c-4.20051,5.67847 -10.26791,8.5177 -18.20221,8.5177c-4.97838,0 -9.10111,-1.30294 -12.36817,-3.90881c-3.26706,-2.60587 -4.9006,-6.78694 -4.9006,-12.54319c0,-7.54536 3.15038,-12.71821 9.45115,-15.51855c5.21174,-2.4114 11.43472,-3.73379 18.66894,-3.96715c1.47796,0 3.50043,-0.03889 6.0674,-0.11668M201.2274,322.01567v-8.98443c-7.46757,0 -12.05702,0.35004 -13.76834,1.05013c-1.71132,0.70009 -3.22817,1.40017 -4.55055,2.10026c-2.48919,1.32238 -3.73379,3.73379 -3.73379,7.23421c0,5.36732 3.0726,8.05098 9.21779,8.05098c4.04494,0 7.19532,-0.95289 9.45115,-2.85868c2.25583,-1.90579 3.38374,-4.10328 3.38374,-6.59247z" data-paper-data="{&quot;elementType&quot;:&quot;letter&quot;,&quot;baseline&quot;:50.6,&quot;baselineProportion&quot;:0.9768339768339768,&quot;fontSize&quot;:100}"></path><path d="M247.89974,330.41669h7.35089c1.16681,0 1.75021,0.5834 1.75021,1.75021v5.71736c0,1.16681 -0.5834,1.75021 -1.75021,1.75021h-27.77004c-1.16681,0 -1.75021,-0.5834 -1.75021,-1.75021v-5.71736c0,-1.16681 0.5834,-1.75021 1.75021,-1.75021c0,0 2.4503,0 7.35089,0v-38.9714h-6.30077c-1.16681,0 -1.75021,-0.5834 -1.75021,-1.75021v-6.0674c0,-1.16681 0.5834,-1.75021 1.75021,-1.75021h17.61881c1.16681,0 1.75021,0.5834 1.75021,1.75021v46.78902M233.78136,271.49286c0,0 -0.36949,-0.38894 -1.10847,-1.16681c-0.73898,-0.77787 -1.10847,-2.37251 -1.10847,-4.78391c0,-2.4114 0.75843,-4.41443 2.27528,-6.00906c1.51685,-1.59464 3.53932,-2.39196 6.0674,-2.39196c2.52809,0 4.55055,0.79732 6.0674,2.39196c1.51685,1.59464 2.27528,3.59766 2.27528,6.00906c0,2.4114 -0.77787,4.39498 -2.33362,5.95072c-1.55574,1.55574 -3.59766,2.33362 -6.12574,2.33362c-2.52809,0 -4.53111,-0.77787 -6.00906,-2.33362z" data-paper-data="{&quot;elementType&quot;:&quot;letter&quot;,&quot;baseline&quot;:70.7,&quot;baselineProportion&quot;:1,&quot;fontSize&quot;:100}"></path><path d="M282.20391,254.34077v76.07591h7.35089c1.16681,0 1.75021,0.5834 1.75021,1.75021v5.71736c0,1.16681 -0.5834,1.75021 -1.75021,1.75021h-27.77004c-1.16681,0 -1.75021,-0.5834 -1.75021,-1.75021v-5.71736c0,-1.16681 0.5834,-1.75021 1.75021,-1.75021h7.35089v-68.2583h-6.30077c-1.16681,0 -1.75021,-0.5834 -1.75021,-1.75021v-6.0674c0,-1.16681 0.5834,-1.75021 1.75021,-1.75021h17.61881c1.16681,0 1.75021,0.5834 1.75021,1.75021z" data-paper-data="{&quot;elementType&quot;:&quot;letter&quot;,&quot;baseline&quot;:74.60000000000001,&quot;baselineProportion&quot;:1,&quot;fontSize&quot;:100}"></path></g></g></g></g></g></svg>